<?xml version="1.0" standalone="no"?>
<!DOCTYPE svg PUBLIC "-//W3C//DTD SVG 20010904//EN"
 "http://www.w3.org/TR/2001/REC-SVG-20010904/DTD/svg10.dtd">
<svg version="1.0" xmlns="http://www.w3.org/2000/svg"
 width="231.000000pt" height="575.000000pt" viewBox="0 0 231.000000 575.000000"
 preserveAspectRatio="xMidYMid meet">

<g transform="translate(0.000000,575.000000) scale(0.100000,-0.100000)"
fill="#000000" stroke="none">
<path d="M825 5392 c-3 -3 -5 -20 -5 -37 l0 -32 81 -7 c45 -4 83 -5 85 -4 9 9
13 55 6 66 -9 13 -156 25 -167 14z"/>
<path d="M1196 5344 c-16 -42 -7 -52 63 -73 88 -27 99 -26 107 4 10 41 -1 51
-73 68 -84 21 -89 21 -97 1z"/>
<path d="M1522 5158 c-26 -26 -12 -46 55 -78 63 -31 67 -31 80 -14 25 34 16
52 -39 72 -29 11 -60 23 -68 26 -9 4 -21 1 -28 -6z"/>
<path d="M824 4925 c-3 -8 -2 -27 3 -42 9 -27 13 -28 77 -31 79 -3 96 6 96 54
l0 34 -85 0 c-66 0 -87 -3 -91 -15z"/>
<path d="M1094 4884 c-10 -41 6 -57 77 -75 59 -16 65 -16 81 0 9 9 20 28 23
43 6 25 4 27 -47 37 -131 26 -126 26 -134 -5z"/>
<path d="M1370 4765 c-15 -40 -14 -43 40 -70 73 -37 98 -32 114 21 5 18 -2 23
-61 45 -37 13 -71 25 -75 27 -4 2 -12 -8 -18 -23z"/>
<path d="M1692 4709 c9 -26 57 -51 104 -55 l49 -4 -36 14 c-19 7 -54 23 -78
36 -27 13 -42 17 -39 9z"/>
<path d="M810 4447 c0 -24 6 -51 13 -61 12 -16 17 -15 77 17 36 18 81 39 100
46 l35 13 -35 13 c-19 8 -70 14 -112 14 l-78 1 0 -43z"/>
<path d="M1520 4392 c0 -11 39 -46 67 -61 12 -6 41 -11 65 -10 l43 0 -35 13
c-20 8 -59 25 -88 40 -29 14 -52 23 -52 18z"/>
<path d="M1650 4074 l-64 -124 -36 6 c-77 14 -188 55 -236 88 l-52 35 -20 -47
c-32 -75 -44 -132 -45 -208 0 -80 20 -129 64 -152 94 -49 302 101 387 280 44
91 76 193 70 226 -2 14 -23 -18 -68 -104z"/>
<path d="M1366 3324 c-3 -9 -6 -42 -6 -74 l0 -57 -39 -7 c-22 -3 -46 -14 -53
-24 -7 -10 -29 -24 -48 -30 -74 -26 -100 -85 -66 -150 21 -39 102 -114 169
-157 150 -94 328 -148 492 -149 95 -1 116 2 151 21 23 12 44 29 48 38 12 32 6
80 -14 113 -11 18 -20 43 -20 57 0 13 -10 36 -23 51 l-24 27 33 54 c30 50 54
127 54 172 0 17 -8 18 -102 14 -168 -9 -369 27 -488 87 -49 25 -59 27 -64 14z"/>
<path d="M495 1854 c-483 -1130 -498 -1165 -492 -1213 19 -161 196 -336 482
-476 220 -109 421 -158 640 -157 157 0 253 18 353 67 131 65 97 -69 334 1331
115 675 206 1230 203 1232 -3 3 -8 3 -11 -1 -3 -3 -107 -520 -230 -1149 -123
-629 -226 -1153 -229 -1166 -9 -38 -83 -102 -158 -137 -274 -128 -680 -59
-990 167 -137 101 -215 216 -224 330 l-5 63 467 1114 c256 612 465 1115 463
1116 -2 2 -26 12 -54 23 l-52 19 -497 -1163z"/>
</g>
</svg>
